<svg xmlns="http://www.w3.org/2000/svg" xmlns:xlink="http://www.w3.org/1999/xlink" viewBox="0 0 155.26 170.74"><defs><style>.a{fill:url(#a);}.b{fill:url(#b);}.c{fill:url(#c);}.d{fill:url(#d);}.e{fill:url(#e);}</style><linearGradient id="a" x1="52.21" y1="30.85" x2="109.83" y2="30.85" gradientUnits="userSpaceOnUse"><stop offset="0" stop-color="#df88b4"/><stop offset="1" stop-color="#c2d8f0"/></linearGradient><linearGradient id="b" x1="122.97" y1="57.91" x2="155.26" y2="57.91" xlink:href="#a"/><linearGradient id="c" x1="17.4" y1="116.19" x2="150.19" y2="116.19" xlink:href="#a"/><linearGradient id="d" x1="0" y1="104.34" x2="32.29" y2="104.34" xlink:href="#a"/><linearGradient id="e" x1="116.63" y1="30.6" x2="154.14" y2="30.6" gradientUnits="userSpaceOnUse"><stop offset="0.1" stop-color="#86888a"/><stop offset="1" stop-color="#c2d8f0"/></linearGradient></defs><path class="a" d="M103.6,30.85A16.3,16.3,0,0,1,109.83,18,10.67,10.67,0,0,0,105.14,17H63A10.74,10.74,0,0,0,52.21,27.69V34A10.74,10.74,0,0,0,63,44.75h42.19a10.67,10.67,0,0,0,4.69-1.09A16.26,16.26,0,0,1,103.6,30.85Z" transform="translate(-1.26 -11.84)"/><circle class="b" cx="139.11" cy="57.91" r="16.15"/><path class="c" d="M83.8,49.8a66.39,66.39,0,1,0,66.39,66.39A66.39,66.39,0,0,0,83.8,49.8Zm0,77.28a10.74,10.74,0,1,1,10.74-10.74A10.74,10.74,0,0,1,83.84,127.08Z" transform="translate(-1.26 -11.84)"/><circle class="d" cx="16.15" cy="104.34" r="16.15"/><path class="e" d="M152.22,26.66l-2.64-.44a14.65,14.65,0,0,0-1.05-2.56l1.55-2.17a2.32,2.32,0,0,0-.25-3l-2.34-2.33a2.3,2.3,0,0,0-1.64-.68,2.32,2.32,0,0,0-1.34.43l-2.17,1.55a15.23,15.23,0,0,0-2.65-1.09l-.44-2.6A2.32,2.32,0,0,0,137,11.84h-3.3a2.33,2.33,0,0,0-2.29,1.94l-.45,2.66a15,15,0,0,0-2.55,1.08L126.22,16a2.29,2.29,0,0,0-3,.25l-2.34,2.33a2.32,2.32,0,0,0-.25,3l1.56,2.2a14.93,14.93,0,0,0-1,2.56l-2.6.44A2.31,2.31,0,0,0,116.63,29v3.3a2.32,2.32,0,0,0,1.93,2.29l2.67.45a14.2,14.2,0,0,0,1.07,2.55l-1.54,2.14a2.31,2.31,0,0,0,.25,3l2.33,2.33a2.3,2.3,0,0,0,3,.26l2.2-1.57a15.38,15.38,0,0,0,2.48,1l.44,2.63a2.31,2.31,0,0,0,2.28,1.94H137a2.32,2.32,0,0,0,2.29-1.94l.45-2.63a15.4,15.4,0,0,0,2.55-1.06l2.17,1.55a2.32,2.32,0,0,0,3-.25l2.33-2.34a2.31,2.31,0,0,0,.25-3l-1.55-2.18A15.26,15.26,0,0,0,149.57,35l2.63-.44a2.32,2.32,0,0,0,1.94-2.29V29A2.29,2.29,0,0,0,152.22,26.66Zm-16.83,9.91a6,6,0,1,1,6-6A6,6,0,0,1,135.39,36.57Z" transform="translate(-1.26 -11.84)"/></svg>