<?xml version="1.0" standalone="no"?>
<!DOCTYPE svg PUBLIC "-//W3C//DTD SVG 20010904//EN">
<svg version="1.0" xmlns="http://www.w3.org/2000/svg"
 width="1440.000000pt" height="1440.000000pt" viewBox="0 0 1440.000000 1440.000000"
 preserveAspectRatio="xMidYMid meet">
<metadata>
Created by potrace 1.14, written by Peter Selinger 2001-2017
</metadata>
<g transform="translate(0.000000,1440.000000) scale(0.100000,-0.100000)"
fill="#000000" stroke="none">
<path d="M10399 14006 c-4 -4 -125 -14 -264 -21 -66 -4 -109 -7 -300 -21 -44
-3 -83 -8 -86 -10 -3 -2 0 -27 8 -56 7 -29 16 -66 19 -83 2 -16 7 -38 10 -47
5 -17 12 -46 20 -88 3 -14 22 -99 44 -190 21 -91 62 -266 90 -390 54 -238 107
-468 117 -510 3 -14 7 -31 9 -37 1 -7 14 -61 27 -120 14 -60 42 -180 62 -268
20 -88 40 -176 46 -196 5 -20 9 -47 10 -60 l1 -24 7 25 c5 14 11 64 15 110 4
47 9 99 10 115 2 17 7 68 10 115 4 47 9 101 11 120 2 19 6 69 10 110 3 41 8
96 10 123 11 106 15 145 20 217 4 41 8 86 10 100 2 14 6 68 10 120 3 52 8 106
10 120 2 14 6 59 10 100 3 41 8 95 10 120 3 25 7 74 10 110 3 36 7 85 10 110
10 105 15 169 20 230 2 36 7 91 10 123 6 53 5 63 -6 53z"/>
<path d="M11165 13766 c-9 -40 -37 -171 -40 -191 -2 -11 -20 -94 -40 -185 -20
-91 -40 -185 -45 -210 -5 -25 -19 -88 -30 -140 -11 -52 -25 -115 -30 -140 -16
-77 -20 -94 -25 -120 -3 -14 -7 -34 -9 -45 -6 -27 -37 -166 -41 -185 -5 -22
-44 -209 -49 -234 -2 -11 -9 -39 -14 -61 -6 -22 -13 -53 -15 -70 -5 -30 -10
-56 -27 -130 -22 -93 -60 -273 -60 -281 0 -4 34 51 76 122 42 71 87 145 99
164 29 46 311 522 343 580 13 25 30 52 36 60 6 8 17 26 25 40 8 14 49 84 91
155 42 72 146 246 229 388 84 142 151 260 149 262 -1 1 -64 26 -138 55 -74 28
-144 56 -155 61 -11 5 -89 36 -173 68 -147 57 -152 58 -157 37z"/>
<path d="M12400 12912 c0 -4 -7 -17 -15 -27 -15 -19 -81 -114 -175 -250 -102
-149 -184 -267 -245 -355 -37 -52 -102 -147 -146 -210 -43 -63 -82 -119 -87
-125 -4 -5 -48 -68 -97 -140 -49 -71 -103 -150 -120 -175 -122 -174 -167 -242
-159 -239 6 2 93 62 194 132 366 254 1196 829 1263 874 l68 47 -238 238 c-131
131 -239 238 -240 238 -2 0 -3 -4 -3 -8z"/>
<path d="M10201 11584 c-143 -29 -253 -154 -263 -298 -2 -42 -7 -44 -31 -15
-10 11 -44 33 -75 47 -48 23 -71 27 -142 27 -73 0 -93 -4 -141 -28 -126 -64
-192 -171 -191 -309 0 -61 32 -155 68 -197 l24 -28 -45 -6 c-85 -12 -168 -66
-219 -141 -153 -228 -1 -516 278 -525 18 -1 18 -3 -6 -28 -137 -149 -103 -392
73 -506 102 -67 253 -63 362 9 22 14 40 24 41 22 2 -2 11 -33 20 -70 10 -38
22 -68 27 -68 5 0 9 -6 9 -14 0 -21 96 -105 148 -129 67 -31 197 -31 264 0 66
30 114 70 150 126 31 48 56 132 53 174 -2 21 -1 21 34 -6 67 -53 119 -72 206
-76 176 -7 335 141 339 315 1 88 -8 127 -48 193 -35 58 -33 67 15 67 36 0 131
52 171 93 21 22 51 66 66 96 23 48 27 69 27 141 -1 73 -5 93 -29 140 -32 63
-102 135 -155 158 -44 19 -52 21 -119 29 l-53 6 29 31 c48 50 73 111 79 191
17 225 -173 394 -398 353 -46 -8 -133 -50 -144 -69 -11 -17 -21 -9 -23 19 -8
102 -102 222 -204 260 -73 28 -121 31 -197 16z m-44 -638 c96 -34 206 -22 292
31 52 33 61 30 61 -17 0 -37 44 -114 94 -165 56 -57 139 -96 208 -97 21 0 38
-2 38 -5 0 -2 -14 -21 -30 -42 -88 -109 -91 -276 -9 -397 l28 -41 -44 -6
c-136 -19 -258 -146 -272 -283 -3 -30 -8 -54 -10 -54 -2 0 -14 9 -25 20 -22
20 -99 61 -128 68 -8 2 -43 5 -78 7 -73 4 -152 -19 -206 -60 l-33 -25 -7 40
c-22 139 -150 259 -291 274 -27 2 -51 5 -52 5 -2 1 12 21 31 45 87 114 91 282
9 393 -12 17 -23 34 -23 36 0 3 19 8 43 12 92 16 191 91 235 179 25 49 43 132
34 155 -3 9 17 -1 45 -22 28 -20 68 -43 90 -51z"/>
<path d="M13188 11552 c-42 -26 -213 -130 -380 -230 -166 -101 -406 -247 -533
-323 -126 -77 -310 -187 -408 -246 -97 -58 -176 -108 -174 -109 2 -2 18 0 35
6 18 5 56 12 85 15 28 4 54 8 57 10 5 3 92 19 215 40 17 3 50 9 75 15 25 5 63
12 85 15 49 9 45 8 295 55 113 21 221 41 240 44 19 3 82 14 140 25 58 11 119
23 135 26 26 4 316 58 383 71 12 2 34 6 48 9 15 2 28 6 30 8 4 4 -11 46 -36
102 -4 11 -36 94 -70 185 -33 91 -64 174 -69 185 -5 11 -19 48 -32 83 -13 34
-28 62 -34 61 -5 0 -44 -22 -87 -47z"/>
<path d="M4755 11568 c-323 -41 -595 -306 -642 -628 -4 -25 -7 -182 -7 -350 0
-262 3 -316 19 -380 59 -242 225 -434 455 -527 134 -54 82 -52 1755 -52 1662
1 1602 -1 1735 51 l58 22 -91 91 c-51 50 -113 122 -139 160 -52 77 -121 205
-112 205 4 0 2 6 -4 13 -14 17 -58 162 -67 217 -3 25 -9 61 -12 80 -8 50 -9
184 -1 256 31 281 167 542 382 731 l48 42 -38 16 c-43 18 -122 41 -174 51 -48
10 -3090 11 -3165 2z"/>
<path d="M13569 10186 c-2 -2 -33 -7 -69 -11 -36 -3 -72 -8 -80 -10 -8 -2 -35
-7 -60 -10 -25 -3 -72 -10 -105 -15 -33 -5 -78 -12 -100 -15 -22 -3 -51 -8
-65 -10 -14 -2 -45 -7 -70 -10 -25 -3 -70 -10 -100 -15 -30 -5 -75 -12 -100
-15 -25 -3 -52 -8 -60 -10 -8 -2 -37 -6 -65 -10 -71 -9 -112 -15 -175 -25 -30
-6 -75 -12 -100 -15 -25 -3 -56 -7 -70 -10 -75 -11 -117 -18 -131 -20 -9 -2
-40 -7 -70 -10 -30 -4 -63 -9 -74 -11 -11 -1 -40 -5 -65 -9 -25 -3 -56 -8 -68
-11 -13 -3 -43 -7 -65 -11 -23 -3 -76 -11 -117 -17 l-75 -12 60 -12 c83 -16
98 -19 290 -58 94 -19 260 -53 370 -75 110 -22 209 -42 220 -45 11 -2 43 -8
70 -14 28 -5 61 -12 75 -15 14 -3 37 -7 51 -10 15 -3 114 -23 220 -44 107 -22
205 -42 219 -45 14 -2 72 -14 130 -26 219 -44 195 -50 197 48 1 46 4 195 8
333 5 209 4 249 -8 249 -7 0 -16 -2 -18 -4z"/>
<path d="M6277 9284 c-1 -1 -76 -5 -167 -8 -91 -4 -181 -8 -200 -11 -19 -2
-80 -9 -135 -15 -55 -6 -112 -12 -125 -15 -14 -2 -56 -9 -95 -15 -201 -31
-485 -101 -695 -170 -127 -42 -327 -117 -345 -130 -5 -3 -32 -15 -60 -25 -142
-52 -506 -252 -725 -398 -718 -479 -1296 -1163 -1649 -1952 -34 -77 -66 -149
-71 -160 -32 -69 -152 -424 -165 -490 -12 -56 -39 -134 -46 -130 -12 8 -217 8
-264 0 -112 -18 -162 -30 -256 -65 -344 -125 -619 -435 -700 -787 -25 -110
-31 -163 -30 -273 1 -136 17 -241 57 -360 16 -49 103 -232 113 -240 4 -3 27
-34 53 -70 58 -83 182 -202 275 -263 122 -81 307 -157 418 -171 28 -4 66 -10
85 -13 19 -4 87 -7 150 -7 69 -1 115 -5 115 -11 1 -5 4 -21 8 -35 4 -14 12
-41 17 -60 49 -178 136 -427 215 -610 50 -117 183 -380 233 -464 23 -37 42
-70 42 -72 0 -13 213 -327 277 -409 4 -6 30 -40 58 -75 240 -315 630 -684 976
-926 243 -170 361 -239 634 -374 399 -196 782 -321 1240 -405 11 -2 56 -9 100
-15 44 -6 94 -14 110 -16 17 -3 48 -7 70 -9 22 -1 78 -6 125 -10 47 -3 105 -8
130 -11 62 -5 405 -5 515 1 109 5 268 20 335 30 14 2 63 9 110 15 96 13 273
48 400 80 47 11 95 23 107 26 12 2 81 22 152 44 353 108 702 263 1011 448 137
82 397 257 420 282 3 4 23 19 45 35 232 170 552 484 781 765 140 173 331 455
434 641 43 78 200 395 200 403 0 3 11 29 24 58 45 100 156 409 170 473 1 6 10
37 20 70 10 33 19 67 21 75 2 8 10 42 18 75 9 33 18 71 21 85 3 14 10 48 16
75 17 82 19 89 24 125 3 19 8 45 10 58 14 67 41 296 53 442 14 180 7 673 -11
780 -3 14 -7 50 -10 80 -5 54 -24 191 -30 227 -3 15 -28 148 -42 220 -2 12
-19 82 -38 155 -76 304 -172 569 -317 877 -50 106 -51 119 -9 122 46 2 155 37
245 77 293 131 529 402 619 713 32 112 36 143 41 284 10 319 -102 604 -325
825 -142 141 -270 220 -450 279 -539 174 -1115 -72 -1366 -583 -24 -49 -46
-91 -48 -93 -2 -2 -51 31 -107 74 -323 244 -733 473 -1084 604 -44 17 -89 35
-100 40 -59 27 -457 145 -554 164 -10 2 -62 13 -115 24 -54 12 -116 24 -139
27 -23 3 -51 8 -62 9 -167 27 -353 44 -530 51 -82 3 -167 6 -188 8 -20 1 -38
1 -40 0z m129 -3908 c362 -40 652 -364 655 -733 2 -210 -82 -406 -234 -550
-143 -136 -318 -205 -517 -205 -121 0 -212 22 -325 77 -383 186 -531 649 -328
1025 74 137 197 254 338 320 78 37 121 50 213 64 74 11 110 12 198 2z"/>
</g>
</svg>
