<?xml version="1.0" encoding="utf-8"?>
<!-- Generator: Adobe Illustrator 25.4.0, SVG Export Plug-In . SVG Version: 6.00 Build 0)  -->
<svg version="1.1" id="Layer_1" xmlns="http://www.w3.org/2000/svg" xmlns:xlink="http://www.w3.org/1999/xlink" x="0px" y="0px"
	 viewBox="0 0 106 113.7" style="enable-background:new 0 0 106 113.7;" xml:space="preserve">
<style type="text/css">
	.st0{fill:url(#SVGID_1_);}
	.st1{fill:url(#SVGID_00000103264685776824996900000013696882144162186126_);}
	.st2{fill:url(#SVGID_00000049902733917243469250000004016174777656705677_);}
	.st3{fill:url(#SVGID_00000109739955651503542160000010394769848997296771_);}
	.st4{fill:url(#SVGID_00000108268865839527567370000016217136813034222487_);}
</style>
<linearGradient id="SVGID_1_" gradientUnits="userSpaceOnUse" x1="33.7088" y1="29.0375" x2="70.4373" y2="29.0375" gradientTransform="matrix(1 0 0 -1 -1.26 46.16)">
	<stop  offset="0" style="stop-color:#DF88B4"/>
	<stop  offset="1" style="stop-color:#C2D8F0"/>
</linearGradient>
<path class="st0" d="M65.2,17.1c0-3.2,1.5-6.2,4-8.2c-0.9-0.4-2-0.7-3-0.6H39.3c-3.8,0-6.9,3-6.9,6.8c0,0,0,0,0,0v4
	c0,3.8,3.1,6.8,6.8,6.8c0,0,0,0,0,0h26.9c1,0,2.1-0.2,3-0.7C66.7,23.3,65.2,20.3,65.2,17.1z"/>
<linearGradient id="SVGID_00000016034321132399511430000005162842433591660440_" gradientUnits="userSpaceOnUse" x1="78.3101" y1="16.1186" x2="98.8812" y2="16.1186" gradientTransform="matrix(1 0 0 -1 0 58)">
	<stop  offset="0" style="stop-color:#DF88B4"/>
	<stop  offset="1" style="stop-color:#C2D8F0"/>
</linearGradient>
<circle style="fill:url(#SVGID_00000016034321132399511430000005162842433591660440_);" cx="88.6" cy="41.9" r="10.3"/>
<linearGradient id="SVGID_00000045577558674854368080000009421510761424666777_" gradientUnits="userSpaceOnUse" x1="11.5455" y1="-25.2979" x2="96.1098" y2="-25.2979" gradientTransform="matrix(1 0 0 -1 -1.26 46.16)">
	<stop  offset="0" style="stop-color:#DF88B4"/>
	<stop  offset="1" style="stop-color:#C2D8F0"/>
</linearGradient>
<path style="fill:url(#SVGID_00000045577558674854368080000009421510761424666777_);" d="M52.6,29.2c-23.4,0-42.3,18.9-42.3,42.3
	s18.9,42.3,42.3,42.3s42.3-18.9,42.3-42.3S75.9,29.2,52.6,29.2L52.6,29.2z M52.6,78.4c-3.8,0-6.8-3.1-6.8-6.8c0-3.8,3.1-6.8,6.8-6.8
	c3.8,0,6.8,3.1,6.8,6.8c0,0,0,0,0,0C59.4,75.3,56.4,78.4,52.6,78.4L52.6,78.4z"/>
<linearGradient id="SVGID_00000111899237851245575950000015324375586857010622_" gradientUnits="userSpaceOnUse" x1="0" y1="-13.4515" x2="20.5711" y2="-13.4515" gradientTransform="matrix(1 0 0 -1 0 58)">
	<stop  offset="0" style="stop-color:#DF88B4"/>
	<stop  offset="1" style="stop-color:#C2D8F0"/>
</linearGradient>
<circle style="fill:url(#SVGID_00000111899237851245575950000015324375586857010622_);" cx="10.3" cy="71.5" r="10.3"/>
<linearGradient id="SVGID_00000163783059828726524870000000484557074984342698_" gradientUnits="userSpaceOnUse" x1="74.7362" y1="29.225" x2="98.6263" y2="29.225" gradientTransform="matrix(1 0 0 -1 -1.26 46.16)">
	<stop  offset="0.1" style="stop-color:#86888A"/>
	<stop  offset="1" style="stop-color:#C2D8F0"/>
</linearGradient>
<path style="fill:url(#SVGID_00000163783059828726524870000000484557074984342698_);" d="M96.1,14.4l-1.7-0.3
	c-0.2-0.6-0.4-1.1-0.7-1.6l1-1.4c0.4-0.6,0.4-1.4-0.2-1.9l-1.5-1.5c-0.3-0.3-0.7-0.4-1-0.4c-0.3,0-0.6,0.1-0.9,0.3l-1.4,1
	c-0.5-0.3-1.1-0.5-1.7-0.7l-0.3-1.7C87.8,5.5,87.2,5,86.4,5h-2.1c-0.7,0-1.3,0.5-1.5,1.2l-0.3,1.7C82,8.1,81.5,8.3,81,8.6l-1.4-1
	c-0.6-0.4-1.4-0.4-1.9,0.2l-1.5,1.5c-0.5,0.5-0.6,1.3-0.2,1.9l1,1.4c-0.3,0.5-0.5,1.1-0.6,1.6l-1.7,0.3c-0.7,0.1-1.2,0.7-1.2,1.4V18
	c0,0.7,0.5,1.3,1.2,1.5l1.7,0.3c0.2,0.6,0.4,1.1,0.7,1.6l-1,1.4c-0.4,0.6-0.4,1.4,0.2,1.9l1.5,1.5c0.5,0.5,1.3,0.6,1.9,0.2l1.4-1
	c0.5,0.3,1,0.5,1.6,0.6l0.3,1.7c0.1,0.7,0.7,1.2,1.5,1.2h2.1c0.7,0,1.3-0.5,1.5-1.2l0.3-1.7c0.6-0.2,1.1-0.4,1.6-0.7l1.4,1
	c0.6,0.4,1.4,0.4,1.9-0.2l1.5-1.5c0.5-0.5,0.6-1.3,0.2-1.9l-1-1.4c0.3-0.5,0.5-1,0.7-1.6l1.7-0.3c0.7-0.1,1.2-0.7,1.2-1.5v-2.1
	C97.4,15.2,96.9,14.6,96.1,14.4z M85.4,20.7c-2.1,0-3.8-1.7-3.8-3.8s1.7-3.8,3.8-3.8c2.1,0,3.8,1.7,3.8,3.8S87.5,20.7,85.4,20.7z"/>
</svg>
